<svg width="80" height="44" viewBox="0 0 80 44" fill="none" xmlns="http://www.w3.org/2000/svg">
<path d="M0 11.9437H6.33612H10.1839V8.13046L0 11.9437Z" fill="#FF9D28"/>
<path d="M10.1846 8.13047V21.6092L15 6.33331L10.1846 8.13047Z" fill="#68C5ED"/>
<path d="M10.1837 11.9437H6.33594L10.1837 21.5976V11.9437Z" fill="#044D80"/>
<path d="M0 11.9437L7.32688 14.4205L6.33612 11.9437H0Z" fill="#E54747"/>
<path d="M23.6447 16.5663C23.5896 16.6214 23.5014 16.6875 23.3802 16.7646C23.2589 16.8417 23.0936 16.9299 22.8953 17.007C22.697 17.0842 22.4545 17.1613 22.157 17.2164C21.8706 17.2715 21.54 17.3046 21.1653 17.3046C20.449 17.3046 19.821 17.1833 19.2921 16.963C18.7632 16.7316 18.3333 16.412 17.9918 15.9933C17.6502 15.5745 17.3967 15.0897 17.2425 14.5277C17.0772 13.9657 17 13.3376 17 12.6654C17 11.9933 17.0882 11.3652 17.2644 10.7922C17.4408 10.2192 17.6942 9.72329 18.0469 9.30455C18.3885 8.88582 18.8293 8.55525 19.3471 8.32384C19.8651 8.09244 20.4821 7.97122 21.1873 7.97122C21.5289 7.97122 21.8484 8.00428 22.124 8.05937C22.3995 8.12549 22.6529 8.1916 22.8623 8.27976C23.0716 8.36791 23.248 8.45607 23.3802 8.54422C23.5234 8.63238 23.6227 8.72053 23.6888 8.77563C23.7658 8.84174 23.843 8.9299 23.8981 9.02907C23.9532 9.12825 23.9863 9.23844 23.9863 9.34863C23.9863 9.52494 23.9202 9.70124 23.788 9.87756C23.6557 10.0539 23.5124 10.2192 23.3472 10.3734C23.2369 10.2632 23.1158 10.153 22.9835 10.0429C22.8513 9.93265 22.697 9.83348 22.5317 9.74532C22.3664 9.65717 22.1791 9.59106 21.9697 9.53596C21.7603 9.48086 21.5289 9.4478 21.2645 9.4478C20.8126 9.4478 20.427 9.53596 20.1185 9.72329C19.8099 9.91061 19.5676 10.142 19.3802 10.4395C19.1929 10.7371 19.0607 11.0676 18.9835 11.4423C18.9063 11.8169 18.8623 12.2026 18.8623 12.5993C18.8623 13.0181 18.9063 13.4147 18.9835 13.8004C19.0607 14.1861 19.2038 14.5167 19.4022 14.8142C19.6006 15.1117 19.854 15.3431 20.1735 15.5194C20.4931 15.6957 20.8788 15.7839 21.3526 15.7839C21.6061 15.7839 21.8264 15.7508 22.0358 15.6957C22.2452 15.6296 22.4325 15.5525 22.5867 15.4643C22.7522 15.3762 22.8844 15.277 23.0055 15.1889C23.1267 15.0897 23.2259 15.0015 23.303 14.9354C23.3581 15.0015 23.4133 15.0787 23.4903 15.1668C23.5675 15.255 23.6336 15.3541 23.6888 15.4423C23.7549 15.5415 23.7989 15.6406 23.8541 15.7398C23.8981 15.839 23.9202 15.9271 23.9202 16.0043C23.9202 16.1255 23.8981 16.2136 23.8541 16.3018C23.8099 16.3789 23.7328 16.4671 23.6447 16.5663ZM30.5207 15.5415C30.5207 16.2467 30.6199 16.7646 30.8292 17.0842C30.6639 17.1503 30.5207 17.1944 30.3774 17.2164C30.2341 17.2384 30.091 17.2605 29.9366 17.2605C29.6171 17.2605 29.3747 17.1944 29.2094 17.0732C29.0441 16.9519 28.9339 16.7646 28.8898 16.5332C28.6914 16.7426 28.4381 16.9189 28.1075 17.0621C27.7879 17.2054 27.3912 17.2715 26.9284 17.2715C26.686 17.2715 26.4435 17.2384 26.2012 17.1723C25.9587 17.1062 25.7383 16.996 25.5399 16.8417C25.3416 16.6875 25.1874 16.4891 25.0551 16.2357C24.9339 15.9822 24.8677 15.6737 24.8677 15.3101C24.8677 14.8583 24.978 14.4836 25.1984 14.1971C25.4188 13.9106 25.6943 13.6902 26.0248 13.5249C26.3554 13.3597 26.719 13.2495 27.0937 13.1833C27.4793 13.1172 27.832 13.0842 28.1515 13.0621C28.2617 13.0511 28.3609 13.0511 28.4711 13.0511H28.7576V12.8087C28.7576 12.4671 28.6695 12.2247 28.4822 12.0704C28.2948 11.9271 27.9973 11.85 27.5895 11.85C27.2039 11.85 26.8623 11.9161 26.5648 12.0373C26.2673 12.1585 25.9697 12.3018 25.6832 12.4671C25.562 12.3128 25.4518 12.1475 25.3857 11.9602C25.3085 11.7729 25.2755 11.6406 25.2755 11.5525C25.2755 11.4313 25.3416 11.3101 25.4849 11.1889C25.6282 11.0676 25.8154 10.9685 26.0579 10.8693C26.3003 10.7701 26.5757 10.704 26.8954 10.6379C27.2039 10.5828 27.5345 10.5497 27.887 10.5497C28.3719 10.5497 28.7797 10.5938 29.1102 10.693C29.4408 10.7922 29.7163 10.9464 29.9256 11.1448C30.135 11.3541 30.2893 11.6076 30.3774 11.9161C30.4655 12.2247 30.5097 12.5883 30.5097 12.996L30.5207 15.5415ZM28.8017 13.9878H28.6144C28.5483 13.9878 28.4931 13.9878 28.427 13.9988C28.2067 14.0208 27.9862 14.0428 27.7659 14.0759C27.5454 14.109 27.3471 14.1751 27.1818 14.2632C27.0165 14.3514 26.8734 14.4726 26.7631 14.6158C26.6529 14.7591 26.5978 14.9464 26.5978 15.1668C26.5978 15.4203 26.664 15.6296 26.8071 15.8059C26.9504 15.9822 27.1929 16.0704 27.5345 16.0704C27.6998 16.0704 27.865 16.0484 28.0193 16.0043C28.1736 15.9602 28.3058 15.9051 28.427 15.828C28.5483 15.7508 28.6364 15.6737 28.7025 15.5966C28.7686 15.5084 28.8017 15.4313 28.8017 15.3652V13.9878ZM33.8595 11.3431C34.0028 11.1778 34.2231 11.0015 34.5317 10.8252C34.8403 10.6489 35.2149 10.5608 35.6777 10.5608C36.0083 10.5608 36.3278 10.6159 36.6253 10.726C36.9229 10.8362 37.1874 11.0236 37.4188 11.266C37.6502 11.5194 37.8374 11.85 37.9697 12.2577C38.113 12.6654 38.1791 13.1723 38.1791 13.7784C38.1791 14.4726 38.1019 15.0566 37.9366 15.5084C37.7713 15.9602 37.573 16.3238 37.3196 16.5773C37.0661 16.8417 36.7796 17.0291 36.4711 17.1393C36.1625 17.2495 35.843 17.3046 35.5344 17.3046C35.2811 17.3046 35.0497 17.2715 34.8623 17.2164C34.675 17.1613 34.5097 17.0952 34.3775 17.0181C34.2453 16.9519 34.146 16.8748 34.0689 16.8087C34.0028 16.7426 33.9476 16.6875 33.9367 16.6654V19.9712H32.1074V10.7591C32.1515 10.7481 32.2066 10.7371 32.2727 10.7371C32.3279 10.726 32.394 10.726 32.4601 10.715C32.5371 10.715 32.6143 10.704 32.7135 10.704C33.011 10.704 33.2645 10.7481 33.4739 10.8473C33.6722 10.9464 33.8045 11.1117 33.8595 11.3431ZM36.2838 13.8225C36.2838 13.558 36.2617 13.3045 36.2177 13.0731C36.1736 12.8417 36.0964 12.6434 35.9972 12.4671C35.8981 12.3018 35.7548 12.1696 35.5786 12.0704C35.4022 11.9712 35.1928 11.9271 34.9394 11.9271C34.5648 11.9271 34.3003 12.0043 34.157 12.1365C34.0137 12.2798 33.9367 12.434 33.9367 12.6103V15.4643C34.0028 15.5415 34.135 15.6186 34.3223 15.7178C34.5097 15.817 34.719 15.861 34.9614 15.861C35.4133 15.861 35.7438 15.6847 35.9642 15.3211C36.1736 14.9685 36.2838 14.4726 36.2838 13.8225ZM39.5895 16.1365C39.5234 15.9602 39.4904 15.7729 39.4684 15.5745C39.4463 15.3762 39.4463 15.1778 39.4463 14.9795V8.75358C39.5124 8.74257 39.5785 8.73155 39.6446 8.73155C39.7107 8.72053 39.7768 8.72053 39.8429 8.70952C39.9092 8.70952 39.9862 8.6985 40.0523 8.6985C40.1956 8.6985 40.3389 8.70951 40.4821 8.74257C40.6253 8.76461 40.7576 8.81971 40.8678 8.90785C40.989 8.98499 41.0772 9.09518 41.1542 9.23844C41.2204 9.38169 41.2645 9.55799 41.2645 9.77838V10.7371H43.1488V12.0924H41.2755V14.9574C41.2755 15.5856 41.5289 15.8941 42.0358 15.8941C42.157 15.8941 42.2783 15.872 42.3885 15.839C42.4986 15.7949 42.5978 15.7508 42.686 15.7068C42.7741 15.6627 42.8513 15.6076 42.9174 15.5525C42.9835 15.4974 43.0275 15.4533 43.0606 15.4313C43.1929 15.6296 43.303 15.7949 43.3691 15.9382C43.4352 16.0814 43.4794 16.2136 43.4794 16.3459C43.4794 16.4671 43.4352 16.5773 43.3361 16.6875C43.2369 16.7977 43.1047 16.9079 42.9394 16.996C42.7741 17.0952 42.5647 17.1723 42.3223 17.2274C42.0799 17.2825 41.8155 17.3156 41.5289 17.3156C40.978 17.3156 40.5372 17.2054 40.2287 16.996C39.9422 16.7646 39.7218 16.4891 39.5895 16.1365ZM47.7769 15.9602C47.9972 15.9602 48.1956 15.9382 48.3719 15.8831C48.5372 15.839 48.6914 15.7729 48.8347 15.7068C48.9669 15.6406 49.0882 15.5525 49.1874 15.4754C49.2866 15.3872 49.3747 15.3101 49.4518 15.244C49.5619 15.3762 49.6722 15.5525 49.7935 15.7619C49.9146 15.9712 49.9697 16.1475 49.9697 16.2798C49.9697 16.4781 49.8596 16.6544 49.6391 16.8197C49.4518 16.963 49.1874 17.0842 48.8347 17.1944C48.4931 17.2935 48.0855 17.3486 47.6226 17.3486C47.2039 17.3486 46.7851 17.2935 46.3774 17.1833C45.9698 17.0732 45.6061 16.8858 45.2865 16.6214C44.967 16.3569 44.7135 15.9933 44.5152 15.5415C44.3168 15.0897 44.2177 14.5167 44.2177 13.8335C44.2177 13.2715 44.3058 12.7866 44.4821 12.3789C44.6585 11.9712 44.8898 11.6296 45.1763 11.3652C45.4629 11.1007 45.7934 10.9023 46.1681 10.7701C46.5317 10.6489 46.9064 10.5828 47.292 10.5828C47.7879 10.5828 48.2177 10.6599 48.5703 10.8142C48.9229 10.9685 49.1983 11.1778 49.4188 11.4423C49.6391 11.7068 49.7935 12.0043 49.8926 12.3459C49.9918 12.6875 50.0358 13.0401 50.0358 13.4147V13.6021C50.0358 13.6792 50.0358 13.7453 50.0249 13.8335C50.0249 13.9106 50.0138 13.9877 50.0138 14.0649C50.0138 14.142 50.0027 14.1971 49.9918 14.2412H46.0359C46.0689 14.7371 46.2232 15.1448 46.4987 15.4754C46.7631 15.7949 47.1928 15.9602 47.7769 15.9602ZM48.3939 13.2384C48.3939 12.8087 48.3058 12.4561 48.1405 12.1916C47.9753 11.9271 47.6777 11.7839 47.2479 11.7839C46.8733 11.7839 46.5868 11.9161 46.3664 12.1696C46.146 12.423 46.0359 12.7756 46.0359 13.2384H48.3939ZM53.2204 11.3762C53.2756 11.299 53.3417 11.2109 53.4298 11.1117C53.5179 11.0125 53.6281 10.9244 53.7603 10.8473C53.8926 10.7701 54.0358 10.704 54.1901 10.6489C54.3444 10.5938 54.5097 10.5718 54.697 10.5718C54.8072 10.5718 54.9174 10.5828 55.0386 10.5938C55.1597 10.6159 55.27 10.6489 55.3691 10.693C55.4683 10.7371 55.5565 10.8032 55.6227 10.8913C55.6888 10.9795 55.7218 11.0787 55.7218 11.1999C55.7218 11.3982 55.6777 11.6186 55.5785 11.872C55.4794 12.1255 55.3802 12.3459 55.281 12.5222C55.1267 12.401 54.9725 12.3018 54.8292 12.2357C54.675 12.1696 54.4986 12.1365 54.2892 12.1365C54.0138 12.1365 53.7823 12.2136 53.5951 12.3789C53.4078 12.5442 53.3086 12.7315 53.3086 12.963V17.3046H51.4793V10.7481C51.5234 10.7371 51.5785 10.726 51.6446 10.726C51.6998 10.715 51.7659 10.715 51.832 10.704C51.8981 10.704 51.9862 10.693 52.0854 10.693C52.372 10.693 52.6254 10.7481 52.8348 10.8583C53.0331 10.9795 53.1653 11.1448 53.2204 11.3762ZM58.4104 11.3762C58.4656 11.299 58.5317 11.2109 58.6198 11.1117C58.7081 11.0125 58.8182 10.9244 58.9504 10.8473C59.0826 10.7701 59.2259 10.704 59.3801 10.6489C59.5345 10.5938 59.6998 10.5718 59.887 10.5718C59.9973 10.5718 60.1075 10.5828 60.2287 10.5938C60.3498 10.6159 60.46 10.6489 60.5592 10.693C60.6584 10.7371 60.7466 10.8032 60.8127 10.8913C60.8788 10.9795 60.9119 11.0787 60.9119 11.1999C60.9119 11.3982 60.8678 11.6186 60.7686 11.872C60.6694 12.1255 60.5703 12.3459 60.4711 12.5222C60.3168 12.401 60.1625 12.3018 60.0193 12.2357C59.865 12.1696 59.6887 12.1365 59.4793 12.1365C59.2039 12.1365 58.9725 12.2136 58.7851 12.3789C58.5978 12.5442 58.4987 12.7315 58.4987 12.963V17.3046H56.6694V10.7481C56.7135 10.7371 56.7686 10.726 56.8347 10.726C56.8899 10.715 56.956 10.715 57.0221 10.704C57.0882 10.704 57.1763 10.693 57.2755 10.693C57.562 10.693 57.8154 10.7481 58.0248 10.8583C58.2232 10.9795 58.3554 11.1448 58.4104 11.3762ZM67.1267 15.5415C67.1267 16.2467 67.2259 16.7646 67.4353 17.0842C67.27 17.1503 67.1267 17.1944 66.9836 17.2164C66.8403 17.2384 66.697 17.2605 66.5428 17.2605C66.2231 17.2605 65.9807 17.1944 65.8154 17.0732C65.6501 16.9519 65.54 16.7646 65.4959 16.5332C65.2976 16.7426 65.044 16.9189 64.7135 17.0621C64.394 17.2054 63.9973 17.2715 63.5344 17.2715C63.2921 17.2715 63.0496 17.2384 62.8072 17.1723C62.5647 17.1062 62.3444 16.996 62.146 16.8417C61.9477 16.6875 61.7934 16.4891 61.6611 16.2357C61.54 15.9822 61.4739 15.6737 61.4739 15.3101C61.4739 14.8583 61.5841 14.4836 61.8044 14.1971C62.0249 13.9106 62.3003 13.6902 62.6308 13.5249C62.9615 13.3597 63.3251 13.2495 63.6998 13.1833C64.0854 13.1172 64.438 13.0842 64.7576 13.0621C64.8678 13.0511 64.967 13.0511 65.0771 13.0511H65.3637V12.8087C65.3637 12.4671 65.2754 12.2247 65.0882 12.0704C64.9009 11.9271 64.6034 11.85 64.1956 11.85C63.8099 11.85 63.4683 11.9161 63.1708 12.0373C62.8733 12.1585 62.5758 12.3018 62.2893 12.4671C62.168 12.3128 62.0579 12.1475 61.9918 11.9602C61.9146 11.7729 61.8816 11.6406 61.8816 11.5525C61.8816 11.4313 61.9477 11.3101 62.091 11.1889C62.2341 11.0676 62.4215 10.9685 62.6639 10.8693C62.9063 10.7701 63.1818 10.704 63.5013 10.6379C63.8099 10.5828 64.1405 10.5497 64.4932 10.5497C64.9779 10.5497 65.3857 10.5938 65.7162 10.693C66.0468 10.7922 66.3223 10.9464 66.5317 11.1448C66.7411 11.3541 66.8953 11.6076 66.9836 11.9161C67.0717 12.2247 67.1158 12.5883 67.1158 12.996L67.1267 15.5415ZM65.4078 13.9878H65.2204C65.1543 13.9878 65.0992 13.9878 65.0331 13.9988C64.8127 14.0208 64.5923 14.0428 64.3719 14.0759C64.1515 14.109 63.9532 14.1751 63.7879 14.2632C63.6226 14.3514 63.4793 14.4726 63.3691 14.6158C63.259 14.7591 63.2038 14.9464 63.2038 15.1668C63.2038 15.4203 63.2699 15.6296 63.4132 15.8059C63.5565 15.9822 63.799 16.0704 64.1405 16.0704C64.3057 16.0704 64.4712 16.0484 64.6254 16.0043C64.7796 15.9602 64.9118 15.9051 65.0331 15.828C65.1543 15.7508 65.2424 15.6737 65.3086 15.5966C65.3747 15.5084 65.4078 15.4313 65.4078 15.3652V13.9878Z" fill="#044D80"/>
<path d="M7.36049 41.4538L2.81176 44L3.82744 38.8869L0 35.3477L5.17683 34.7335L7.36049 30L9.54415 34.7335L14.721 35.3477L10.8932 38.8869L11.9092 44L7.36049 41.4538Z" fill="#FF8300"/>
<path d="M22.0831 41.4538L17.5344 44L18.5501 38.8869L14.7227 35.3477L19.8995 34.7335L22.0831 30L24.2668 34.7335L29.4436 35.3477L25.6159 38.8869L26.6319 44L22.0831 41.4538Z" fill="#FF8300"/>
<path d="M36.8058 41.4538L32.2571 44L33.2728 38.8869L29.4453 35.3477L34.6221 34.7335L36.8058 30L38.9895 34.7335L44.1663 35.3477L40.3385 38.8869L41.3545 44L36.8058 41.4538Z" fill="#FF8300"/>
<path d="M51.5285 41.4538L46.9797 44L47.9954 38.8869L44.168 35.3477L49.3448 34.7335L51.5285 30L53.7121 34.7335L58.889 35.3477L55.0612 38.8869L56.0772 44L51.5285 41.4538Z" fill="#FF8300"/>
<path d="M66.2511 41.4538L61.7024 44L62.7181 38.8869L58.8906 35.3477L64.0675 34.7335L66.2511 30L68.4348 34.7335L73.6116 35.3477L69.7838 38.8869L70.7998 44L66.2511 41.4538Z" fill="#FF8300"/>
</svg>
